<svg width="26" height="34" viewBox="0 0 26 34" fill="none" xmlns="http://www.w3.org/2000/svg">
<path d="M14.6047 33.236C18.0781 28.9617 26 18.602 26 12.7831C26 5.72575 20.1771 0 13 0C5.82292 0 0 5.72575 0 12.7831C0 18.602 7.92188 28.9617 11.3953 33.236C12.2281 34.2547 13.7719 34.2547 14.6047 33.236ZM13 17.0441C10.6099 17.0441 8.66667 15.1333 8.66667 12.7831C8.66667 10.4329 10.6099 8.52205 13 8.52205C15.3901 8.52205 17.3333 10.4329 17.3333 12.7831C17.3333 15.1333 15.3901 17.0441 13 17.0441Z" fill="#0C9A4A"/>
</svg>
