<svg width="34" height="34" viewBox="0 0 34 34" fill="none" xmlns="http://www.w3.org/2000/svg">
<path d="M0.00462336 7.08095C-0.0235059 6.82362 0.0591983 6.56648 0.232064 6.37381C0.40493 6.18113 0.651623 6.07112 0.910481 6.07127H4.85691C5.19223 6.07127 5.46405 5.79944 5.46405 5.46413C5.46405 5.12881 5.19223 4.85698 4.85691 4.85698H2.12477C1.86594 4.8576 1.61909 4.74806 1.44588 4.55573C1.27267 4.36341 1.18948 4.10647 1.21709 3.84913C1.29478 3.36525 1.72191 3.01583 2.21159 3.03555H6.0712C6.40651 3.03555 6.67834 2.76373 6.67834 2.42841C6.67834 2.0931 6.40651 1.82127 6.0712 1.82127H3.33905C3.08023 1.82188 2.83337 1.71234 2.66017 1.52002C2.48696 1.32769 2.40377 1.07076 2.43137 0.813412C2.50882 0.329392 2.93611 -0.0201626 3.42587 -0.000159833H12.4171C12.5277 0.000679997 12.6361 0.031752 12.7303 0.0896973L15.1856 1.5602C15.4682 1.72962 15.7912 1.8198 16.1206 1.82127H21.8569V7.21816L20.8053 6.35723C20.0162 5.75494 18.9063 5.81596 18.1879 6.50113C17.6546 7.01839 17.4692 7.79783 17.7126 8.49984H15.6768C15.199 8.50185 14.7411 8.69156 14.4018 9.02806L8.68798 14.6951L8.67584 14.7073L8.42327 14.9574C8.12711 15.247 7.65293 15.2437 7.36077 14.9501C7.0941 14.6824 7.06809 14.2582 7.30005 13.9599L8.9697 11.9199C9.11816 11.7383 9.14877 11.4875 9.04831 11.2755C8.94786 11.0636 8.73431 10.9284 8.49977 10.9284H1.60444C1.11556 10.9475 0.689405 10.5985 0.611766 10.1154C0.584008 9.85832 0.66688 9.60151 0.839703 9.40912C1.01253 9.21672 1.259 9.10687 1.51762 9.10698H4.85691C5.19223 9.10698 5.46405 8.83516 5.46405 8.49984C5.46405 8.16453 5.19223 7.8927 4.85691 7.8927H0.997302C0.508902 7.9116 0.0830612 7.56338 0.00462336 7.08095ZM10.1099 33.3878C9.85428 33.4154 9.59906 33.3323 9.40866 33.1596C9.21737 32.9861 9.10786 32.7402 9.10691 32.482V32.4729V29.1427C9.10691 28.8074 8.83508 28.5356 8.49977 28.5356C8.16445 28.5356 7.89263 28.8074 7.89263 29.1427V32.482V32.4905V33.0035C7.9093 33.4941 7.55734 33.9201 7.07237 33.9962C6.81728 34.024 6.56254 33.9408 6.37295 33.7679C6.18122 33.5943 6.07165 33.3478 6.0712 33.0891V31.8748V31.8627V29.1427C6.0712 28.8074 5.79937 28.5356 5.46405 28.5356C5.12874 28.5356 4.85691 28.8074 4.85691 29.1427V31.8748V31.8821C4.85529 32.1396 4.74478 32.3843 4.55273 32.5558C4.36068 32.7272 4.10503 32.8094 3.84905 32.7819C3.36527 32.7045 3.01579 32.2776 3.03548 31.788V30.6606V30.6514V27.9284C3.03548 27.5931 2.76365 27.3213 2.42834 27.3213C2.09302 27.3213 1.8212 27.5931 1.8212 27.9284V30.6606V30.666C1.82007 30.9237 1.70987 31.1688 1.51789 31.3406C1.32592 31.5125 1.07014 31.5949 0.813945 31.5676C0.330305 31.4903 -0.0192884 31.0638 -0.000233791 30.5743V21.5832C0.000701822 21.4738 0.0293172 21.3664 0.0829448 21.2711L1.56012 18.8146C1.72919 18.5321 1.81935 18.2094 1.8212 17.8802V12.1427H7.21748L6.35595 13.1949C5.80051 13.8705 5.76101 14.8326 6.25919 15.5515C6.75738 16.2703 7.67218 16.5712 8.49977 16.2883V18.3234C8.50178 18.8012 8.69148 19.2592 9.02798 19.5984L14.6902 25.3056C14.6969 25.3128 14.7036 25.3195 14.7108 25.3262L14.9579 25.5751C15.1707 25.7917 15.2326 26.1148 15.1149 26.3946C14.9972 26.6744 14.723 26.8562 14.4194 26.8556C14.2542 26.8563 14.0936 26.8009 13.9641 26.6983L11.9247 25.0293C11.7431 24.8777 11.4901 24.8453 11.2762 24.9463C11.0623 25.0473 10.9266 25.2633 10.9283 25.4998V32.3952C10.9451 32.8852 10.5941 33.3109 10.1099 33.3878ZM33.9949 26.9187C34.023 27.1761 33.9403 27.4332 33.7675 27.6259C33.5946 27.8186 33.3479 27.9286 33.0891 27.9284H29.1426C28.8073 27.9284 28.5355 28.2002 28.5355 28.5356C28.5355 28.8709 28.8073 29.1427 29.1426 29.1427H31.8748C32.1336 29.1421 32.3805 29.2516 32.5537 29.4439C32.7269 29.6363 32.8101 29.8932 32.7825 30.1506C32.7048 30.6344 32.2776 30.9839 31.788 30.9641H27.9283C27.593 30.9641 27.3212 31.236 27.3212 31.5713C27.3212 31.9066 27.593 32.1784 27.9283 32.1784H30.6605C30.9193 32.1778 31.1662 32.2873 31.3394 32.4797C31.5126 32.672 31.5958 32.9289 31.5682 33.1863C31.4907 33.6703 31.0634 34.0198 30.5737 33.9998H21.5825C21.4718 33.999 21.3635 33.9679 21.2692 33.91L18.8139 32.4395C18.5313 32.2701 18.2084 32.1799 17.8789 32.1784H12.1426V26.7803L13.1942 27.6412C13.9826 28.2459 15.0942 28.1848 15.8116 27.4973C16.3451 26.9807 16.5312 26.2018 16.2888 25.4998H18.3227C18.8006 25.4978 19.2585 25.3081 19.5977 24.9716L25.3097 19.307L25.331 19.2863L25.5781 19.0435C25.8743 18.7539 26.3484 18.7572 26.6406 19.0508C26.9073 19.3185 26.9333 19.7427 26.7013 20.041L25.0317 22.081C24.8842 22.2624 24.8539 22.5123 24.9538 22.7236C25.0537 22.9349 25.266 23.0702 25.4998 23.0713H32.3951C32.884 23.0522 33.3101 23.4012 33.3878 23.8842C33.4155 24.1414 33.3327 24.3982 33.1598 24.5906C32.987 24.783 32.7405 24.8928 32.4819 24.8927H29.1426C28.8073 24.8927 28.5355 25.1645 28.5355 25.4998C28.5355 25.8352 28.8073 26.107 29.1426 26.107H33.0041C33.4918 26.089 33.9166 26.437 33.9949 26.9187ZM33.9998 12.4165C33.9988 12.5271 33.968 12.6353 33.9105 12.7298L32.4394 15.1851C32.2701 15.4675 32.1799 15.7902 32.1783 16.1195V21.857H26.7802L27.6418 20.8048C28.2671 20.0232 28.2046 18.8963 27.4967 18.1886C26.9663 17.6797 26.1994 17.503 25.4998 17.7284V15.6763C25.4978 15.1984 25.3081 14.7405 24.9716 14.4013L19.3069 8.68563L19.2954 8.67409L19.0446 8.42152C18.9024 8.281 18.8229 8.08898 18.8243 7.88904C18.8257 7.68909 18.9077 7.49818 19.0519 7.35963C19.3233 7.10071 19.7418 7.07506 20.0428 7.29891L22.0822 8.96795C22.2635 9.1147 22.5129 9.14455 22.7238 9.04474C22.9347 8.94494 23.0697 8.73313 23.0712 8.49984V1.60452C23.0524 1.11553 23.4016 0.689457 23.8848 0.61184C24.1418 0.584266 24.3984 0.667222 24.5907 0.840024C24.783 1.01283 24.8927 1.25919 24.8926 1.5177V4.85698C24.8926 5.1923 25.1645 5.46413 25.4998 5.46413C25.8351 5.46413 26.1069 5.1923 26.1069 4.85698V0.997376C26.0879 0.50829 26.4372 0.0820616 26.9205 0.00469732C27.1775 -0.0228765 27.4342 0.0600792 27.6264 0.232882C27.8187 0.405684 27.9284 0.65205 27.9283 0.910554V4.85698C27.9283 5.1923 28.2002 5.46413 28.5355 5.46413C28.8708 5.46413 29.1426 5.1923 29.1426 4.85698V2.12484C29.1422 1.86612 29.2518 1.61943 29.4441 1.44636C29.6364 1.27329 29.8932 1.19017 30.1505 1.21777C30.6343 1.29518 30.9837 1.72212 30.9641 2.21166V6.07127C30.9641 6.40658 31.2359 6.67841 31.5712 6.67841C31.9065 6.67841 32.1783 6.40658 32.1783 6.07127V3.33913C32.1779 3.08041 32.2875 2.83372 32.4798 2.66064C32.6721 2.48757 32.929 2.40446 33.1862 2.43205C33.6696 2.5097 34.0189 2.93612 33.9998 3.42534V12.4165Z" fill="#0C9A4A"/>
</svg>
