<svg width="34" height="32" viewBox="0 0 34 32" fill="none" xmlns="http://www.w3.org/2000/svg">
<path d="M9.33153 4.77649C9.33153 2.36953 11.2828 0.418213 13.6901 0.418213C16.0971 0.418213 18.0486 2.36953 18.0486 4.77649C18.0486 7.18346 16.0971 9.13471 13.6901 9.13471C11.2828 9.13478 9.33153 7.18346 9.33153 4.77649ZM15.7847 12.104C15.8284 11.155 16.1551 10.2766 16.6807 9.55046C16.3118 9.47321 15.9305 9.43217 15.5393 9.43217H11.8414C11.4514 9.43217 11.0706 9.47289 10.7037 9.54919C11.263 10.325 11.5976 11.2725 11.603 12.2982C12.2829 11.9243 13.063 11.7113 13.8917 11.7113C14.5639 11.7113 15.2038 11.8514 15.7847 12.104ZM16.5224 12.4952C17.7884 13.2891 18.6761 14.6318 18.8385 16.1912C19.3543 16.4323 19.9275 16.5714 20.5348 16.5714C22.7527 16.5714 24.5503 14.7735 24.5503 12.5558C24.5503 10.3377 22.7527 8.5403 20.5348 8.5403C18.3373 8.54036 16.5558 10.3059 16.5224 12.4952ZM13.8916 20.7173C16.1091 20.7173 17.9068 18.919 17.9068 16.7018C17.9068 14.4844 16.1091 12.6864 13.8916 12.6864C11.674 12.6864 9.87545 14.4843 9.87545 16.7018C9.87552 18.919 11.674 20.7173 13.8916 20.7173ZM15.595 20.9906H12.188C9.35309 20.9906 7.04621 23.2973 7.04621 26.1326V30.2997L7.05706 30.365L7.34386 30.4542C10.0494 31.2992 12.3999 31.5818 14.3348 31.5818C18.113 31.5818 20.3039 30.5044 20.4389 30.4355L20.7072 30.2997H20.7357V26.1325C20.7358 23.2973 18.4302 20.9906 15.595 20.9906ZM22.2391 16.8454H18.8576C18.8209 18.1984 18.2435 19.4168 17.3303 20.2926C19.8503 21.0419 21.694 23.3786 21.694 26.1389V27.4229C25.032 27.3 26.9559 26.3545 27.0827 26.2907L27.3511 26.1542H27.3796V21.9863C27.3799 19.1518 25.0732 16.8454 22.2391 16.8454ZM23.1429 8.45467C24.4089 9.24869 25.2966 10.5915 25.4586 12.1509C25.9745 12.3919 26.5477 12.5308 27.155 12.5308C29.3732 12.5308 31.1708 10.7332 31.1708 8.51575C31.1708 6.29767 29.3732 4.50028 27.155 4.50028C24.9577 4.50003 23.1763 6.26596 23.1429 8.45467ZM28.8588 12.8049H25.4781C25.4414 14.1579 24.864 15.3763 23.9508 16.252C26.4707 17.0011 28.3145 19.3381 28.3145 22.0984V23.3824C31.6521 23.2597 33.5764 22.3143 33.7032 22.2502L33.9712 22.1141H34.0001V17.9457C34.0004 15.1114 31.6938 12.8049 28.8588 12.8049ZM6.84585 16.5714C7.63143 16.5714 8.36189 16.342 8.98136 15.9513C9.17836 14.6676 9.86664 13.5455 10.8495 12.7817C10.8536 12.7063 10.8605 12.6319 10.8605 12.5558C10.8605 10.3378 9.06235 8.54036 6.84585 8.54036C4.62745 8.54036 2.83007 10.3378 2.83007 12.5558C2.83007 14.774 4.62739 16.5714 6.84585 16.5714ZM10.452 20.2926C9.54311 19.421 8.96766 18.2092 8.92529 16.8641C8.80028 16.8548 8.67616 16.8454 8.54836 16.8454H5.14176C2.3065 16.8454 0 19.1518 0 21.9867V26.1542L0.0105285 26.2191L0.297715 26.3087C2.46772 26.9873 4.40515 27.2991 6.08787 27.3966V26.1385C6.08819 23.3786 7.93149 21.0415 10.452 20.2926Z" fill="#0C9A4A"/>
</svg>
