<svg width="74" height="74" viewBox="0 0 74 74" fill="none" xmlns="http://www.w3.org/2000/svg">
<circle cx="37" cy="37" r="37" fill="#F0F9F4"/>
<path d="M51.9197 41.2255V39.0796H42.0271C42.0271 41.8563 39.7762 44.1073 36.9994 44.1073C34.2226 44.1073 31.9716 41.8564 31.9716 39.0796H22.0791V41.2255L26.3748 41.6804C26.6427 42.7788 27.0766 43.8122 27.6483 44.7525L24.9317 48.1124L27.9665 51.1473L31.3265 48.4307C32.2668 49.0024 33.3002 49.4362 34.3986 49.7042L34.8535 53.9999H39.1453L39.6002 49.7042C40.6986 49.4362 41.732 49.0024 42.6723 48.4307L46.0322 51.1473L49.0671 48.1124L46.3505 44.7525C46.9222 43.8122 47.356 42.7788 47.624 41.6804L51.9197 41.2255Z" fill="#0C9A4A"/>
<path d="M37.0002 20C34.8753 20 33.1465 21.7288 33.1465 23.8538C33.1465 25.9787 34.8753 27.7074 37.0002 27.7074C39.1252 27.7074 40.854 25.9787 40.854 23.8538C40.854 21.7288 39.1252 20 37.0002 20Z" fill="#0C9A4A"/>
<path d="M41.103 28.7729H32.8969C31.0077 28.773 29.4707 30.3099 29.4707 32.1991V37.0875H44.5291V32.1991C44.5291 30.3099 42.9921 28.7729 41.103 28.7729Z" fill="#0C9A4A"/>
<path d="M28.8243 21.7803C26.9207 21.7803 25.3721 23.329 25.3721 25.2325C25.3721 27.1208 26.8962 28.659 28.7787 28.6836C29.5583 27.7717 30.634 27.1209 31.8562 26.8821C32.1241 26.3917 32.2766 25.8297 32.2766 25.2325C32.2766 23.3289 30.7279 21.7803 28.8243 21.7803Z" fill="#0C9A4A"/>
<path d="M25.1483 29.6392C23.456 29.6392 22.0791 31.016 22.0791 32.7084V37.0876H27.478V32.1991C27.478 31.2737 27.7116 30.402 28.1223 29.6392H25.1483Z" fill="#0C9A4A"/>
<path d="M45.1749 21.7803C43.2713 21.7803 41.7227 23.329 41.7227 25.2325C41.7227 25.8296 41.8751 26.3917 42.143 26.8821C43.3652 27.1209 44.4409 27.7717 45.2205 28.6836C47.1031 28.659 48.6272 27.1208 48.6272 25.2325C48.6272 23.3289 47.0785 21.7803 45.1749 21.7803Z" fill="#0C9A4A"/>
<path d="M48.851 29.6392H45.877C46.2877 30.402 46.5213 31.2737 46.5213 32.1991V37.0875H51.9202V32.7083C51.9202 31.016 50.5433 29.6392 48.851 29.6392Z" fill="#0C9A4A"/>
</svg>
